# Blender v2.83.2 OBJ File: 'barrel.blend'
# www.blender.org
mtllib barrel.mtl
o Cylinder_Cylinder.002
v -18.390863 0.000000 -52.988579
v -18.390863 0.000000 -7.011421
v -16.990940 7.037879 -52.988579
v -16.990940 7.037879 -7.011421
v -13.004303 13.004304 -52.988579
v -13.004303 13.004304 -7.011421
v -7.037879 16.990942 -52.988579
v -7.037879 16.990942 -7.011421
v 0.000001 18.390863 -52.988579
v 0.000001 18.390863 -7.011421
v 7.037880 16.990942 -52.988579
v 7.037880 16.990942 -7.011421
v 13.004303 13.004304 -52.988579
v 13.004303 13.004304 -7.011421
v 16.990940 7.037879 -52.988579
v 16.990940 7.037879 -7.011421
v 18.390863 0.000003 -52.988579
v 18.390863 0.000003 -7.011421
v 16.990944 -7.037874 -52.988579
v 16.990944 -7.037874 -7.011421
v 13.004308 -13.004300 -52.988579
v 13.004308 -13.004300 -7.011421
v 7.037881 -16.990940 -52.988579
v 7.037881 -16.990940 -7.011421
v -0.000000 -18.390863 -52.988579
v -0.000000 -18.390863 -7.011421
v -7.037882 -16.990940 -52.988579
v -7.037882 -16.990940 -7.011421
v -13.004308 -13.004298 -52.988579
v -13.004308 -13.004298 -7.011421
v -16.990946 -7.037870 -52.988579
v -16.990946 -7.037870 -7.011421
v -24.000000 0.000000 -39.975616
v -24.000000 0.000000 -19.975616
v -22.173107 9.184402 -19.975616
v -22.173107 9.184402 -39.975616
v -16.970562 16.970562 -19.975616
v -16.970562 16.970562 -39.975616
v -9.184402 22.173107 -19.975616
v -9.184402 22.173107 -39.975616
v 0.000001 24.000000 -19.975616
v 0.000001 24.000000 -39.975616
v 9.184404 22.173107 -19.975616
v 9.184404 22.173107 -39.975616
v 16.970562 16.970562 -19.975616
v 16.970562 16.970562 -39.975616
v 22.173107 9.184403 -19.975616
v 22.173107 9.184403 -39.975616
v 24.000000 0.000004 -19.975616
v 24.000000 0.000004 -39.975616
v 22.173111 -9.184397 -19.975616
v 22.173111 -9.184397 -39.975616
v 16.970568 -16.970558 -19.975616
v 16.970568 -16.970558 -39.975616
v 9.184406 -22.173107 -19.975616
v 9.184406 -22.173107 -39.975616
v -0.000000 -24.000000 -19.975616
v -0.000000 -24.000000 -39.975616
v -9.184406 -22.173107 -19.975616
v -9.184406 -22.173107 -39.975616
v -16.970568 -16.970556 -19.975616
v -16.970568 -16.970556 -39.975616
v -22.173115 -9.184391 -19.975616
v -22.173115 -9.184391 -39.975616
vt 0.662120 0.336332
vt 0.662120 0.495044
vt 0.603036 0.495044
vt 0.603036 0.336332
vt 0.548603 0.495044
vt 0.548603 0.336332
vt 0.973356 0.335187
vt 0.973356 0.501651
vt 0.912722 0.501651
vt 0.912722 0.335187
vt 0.851268 0.501651
vt 0.851268 0.335187
vt 0.791279 0.501651
vt 0.791279 0.335187
vt 0.728849 0.501651
vt 0.728849 0.335187
vt 0.662024 0.501651
vt 0.662024 0.335187
vt 0.600082 0.501651
vt 0.600082 0.335187
vt 0.546440 0.501651
vt 0.546440 0.335187
vt 0.978081 0.335730
vt 0.978081 0.495358
vt 0.913697 0.495358
vt 0.913697 0.335730
vt 0.854197 0.495358
vt 0.854197 0.335730
vt 0.791766 0.495358
vt 0.791766 0.335730
vt 0.729336 0.495358
vt 0.729336 0.335730
vt 0.666905 0.495358
vt 0.666905 0.335730
vt 0.323073 0.871416
vt 0.246309 0.902341
vt 0.169545 0.871416
vt 0.104468 0.783349
vt 0.060985 0.651548
vt 0.045715 0.496078
vt 0.060985 0.340608
vt 0.104468 0.208807
vt 0.169545 0.120741
vt 0.246309 0.089816
vt 0.323073 0.120741
vt 0.388150 0.208807
vt 0.431633 0.340608
vt 0.446902 0.496078
vt 0.431633 0.651548
vt 0.388150 0.783349
vt 0.602522 0.495358
vt 0.602522 0.335730
vt 0.544974 0.495358
vt 0.544974 0.335730
vt 0.249231 0.899194
vt 0.326129 0.868696
vt 0.391321 0.781845
vt 0.434881 0.651863
vt 0.450177 0.498539
vt 0.434881 0.345215
vt 0.391321 0.215233
vt 0.326129 0.128382
vt 0.249231 0.097884
vt 0.172332 0.128382
vt 0.107140 0.215233
vt 0.063581 0.345215
vt 0.048284 0.498539
vt 0.063581 0.651863
vt 0.107140 0.781845
vt 0.172332 0.868696
vt 0.602522 0.002193
vt 0.602522 0.169063
vt 0.544974 0.169063
vt 0.544974 0.002193
vt 0.666905 0.002193
vt 0.666905 0.169063
vt 0.729336 0.002193
vt 0.729336 0.169063
vt 0.791766 0.002193
vt 0.791766 0.169063
vt 0.854197 0.002193
vt 0.854197 0.169063
vt 0.913697 0.002193
vt 0.913697 0.169063
vt 0.978081 0.002193
vt 0.978081 0.169063
vt 0.600082 0.001651
vt 0.600082 0.168521
vt 0.546440 0.168521
vt 0.546440 0.001651
vt 0.662024 0.001651
vt 0.662024 0.168521
vt 0.728849 0.001651
vt 0.728849 0.168521
vt 0.791279 0.001651
vt 0.791279 0.168521
vt 0.851268 0.001651
vt 0.851268 0.168521
vt 0.912722 0.001651
vt 0.912722 0.168521
vt 0.973356 0.001651
vt 0.973356 0.168521
vt 0.603036 0.002795
vt 0.603036 0.169665
vt 0.548603 0.169665
vt 0.548603 0.002795
vt 0.662120 0.002795
vt 0.662120 0.169665
vn -0.9029 0.1796 0.3906
vn -0.7654 0.5114 0.3906
vn -0.5114 0.7654 0.3906
vn -0.1796 0.9029 0.3906
vn 0.1796 0.9029 0.3906
vn 0.5114 0.7654 0.3906
vn 0.7654 0.5114 0.3906
vn 0.9029 0.1796 0.3906
vn 0.9029 -0.1796 0.3906
vn 0.7654 -0.5114 0.3906
vn 0.5114 -0.7654 0.3906
vn 0.1796 -0.9029 0.3906
vn -0.1796 -0.9029 0.3906
vn -0.5114 -0.7654 0.3906
vn -0.0000 0.0000 1.0000
vn -0.7654 -0.5114 0.3906
vn -0.9029 -0.1796 0.3906
vn 0.0000 0.0000 -1.0000
vn -0.9034 -0.1797 -0.3894
vn -0.9808 -0.1951 0.0000
vn -0.7658 -0.5117 -0.3894
vn -0.8315 -0.5556 0.0000
vn -0.5117 -0.7658 -0.3894
vn -0.5556 -0.8315 0.0000
vn -0.1797 -0.9034 -0.3894
vn -0.1951 -0.9808 0.0000
vn 0.1797 -0.9034 -0.3894
vn 0.1951 -0.9808 0.0000
vn 0.5117 -0.7658 -0.3894
vn 0.5556 -0.8315 0.0000
vn 0.7658 -0.5117 -0.3894
vn 0.8315 -0.5556 0.0000
vn 0.9034 -0.1797 -0.3894
vn 0.9808 -0.1951 0.0000
vn 0.9034 0.1797 -0.3894
vn 0.9808 0.1951 0.0000
vn 0.7658 0.5117 -0.3894
vn 0.8315 0.5556 0.0000
vn 0.5117 0.7658 -0.3894
vn 0.5556 0.8315 0.0000
vn 0.1797 0.9034 -0.3894
vn 0.1951 0.9808 0.0000
vn -0.1797 0.9034 -0.3894
vn -0.1951 0.9808 0.0000
vn -0.5117 0.7658 -0.3894
vn -0.5556 0.8315 0.0000
vn -0.7658 0.5117 -0.3894
vn -0.8315 0.5556 0.0000
vn -0.9034 0.1797 -0.3894
vn -0.9808 0.1951 0.0000
usemtl Material.001
s off
f 34/1/1 2/2/1 4/3/1 35/4/1
f 35/4/2 4/3/2 6/5/2 37/6/2
f 37/7/3 6/8/3 8/9/3 39/10/3
f 39/10/4 8/9/4 10/11/4 41/12/4
f 41/12/5 10/11/5 12/13/5 43/14/5
f 43/14/6 12/13/6 14/15/6 45/16/6
f 45/16/7 14/15/7 16/17/7 47/18/7
f 47/18/8 16/17/8 18/19/8 49/20/8
f 49/20/9 18/19/9 20/21/9 51/22/9
f 51/23/10 20/24/10 22/25/10 53/26/10
f 53/26/11 22/25/11 24/27/11 55/28/11
f 55/28/12 24/27/12 26/29/12 57/30/12
f 57/30/13 26/29/13 28/31/13 59/32/13
f 59/32/14 28/31/14 30/33/14 61/34/14
f 4/35/15 2/36/15 32/37/15 30/38/15 28/39/15 26/40/15 24/41/15 22/42/15 20/43/15 18/44/15 16/45/15 14/46/15 12/47/15 10/48/15 8/49/15 6/50/15
f 61/34/16 30/33/16 32/51/16 63/52/16
f 63/52/17 32/51/17 2/53/17 34/54/17
f 1/55/18 3/56/18 5/57/18 7/58/18 9/59/18 11/60/18 13/61/18 15/62/18 17/63/18 19/64/18 21/65/18 23/66/18 25/67/18 27/68/18 29/69/18 31/70/18
f 31/71/19 64/72/19 33/73/19 1/74/19
f 64/72/20 63/52/20 34/54/20 33/73/20
f 29/75/21 62/76/21 64/72/21 31/71/21
f 62/76/22 61/34/22 63/52/22 64/72/22
f 27/77/23 60/78/23 62/76/23 29/75/23
f 60/78/24 59/32/24 61/34/24 62/76/24
f 25/79/25 58/80/25 60/78/25 27/77/25
f 58/80/26 57/30/26 59/32/26 60/78/26
f 23/81/27 56/82/27 58/80/27 25/79/27
f 56/82/28 55/28/28 57/30/28 58/80/28
f 21/83/29 54/84/29 56/82/29 23/81/29
f 54/84/30 53/26/30 55/28/30 56/82/30
f 19/85/31 52/86/31 54/84/31 21/83/31
f 52/86/32 51/23/32 53/26/32 54/84/32
f 17/87/33 50/88/33 52/89/33 19/90/33
f 50/88/34 49/20/34 51/22/34 52/89/34
f 15/91/35 48/92/35 50/88/35 17/87/35
f 48/92/36 47/18/36 49/20/36 50/88/36
f 13/93/37 46/94/37 48/92/37 15/91/37
f 46/94/38 45/16/38 47/18/38 48/92/38
f 11/95/39 44/96/39 46/94/39 13/93/39
f 44/96/40 43/14/40 45/16/40 46/94/40
f 9/97/41 42/98/41 44/96/41 11/95/41
f 42/98/42 41/12/42 43/14/42 44/96/42
f 7/99/43 40/100/43 42/98/43 9/97/43
f 40/100/44 39/10/44 41/12/44 42/98/44
f 5/101/45 38/102/45 40/100/45 7/99/45
f 38/102/46 37/7/46 39/10/46 40/100/46
f 3/103/47 36/104/47 38/105/47 5/106/47
f 36/104/48 35/4/48 37/6/48 38/105/48
f 1/107/49 33/108/49 36/104/49 3/103/49
f 33/108/50 34/1/50 35/4/50 36/104/50
