# Blender v2.83.4 OBJ File: 'wallCorner.blend'
# www.blender.org
mtllib wallCorner.mtl
o Cube.001
v 12.000003 -64.000000 128.000000
v 12.000003 -64.000000 0.000000
v -11.999997 -64.000000 128.000000
v -11.999997 -64.000000 0.000000
v 11.999999 -11.999999 128.000000
v 11.999999 -11.999999 0.000000
v -12.000001 11.999999 128.000000
v -12.000001 11.999999 0.000000
v 64.000000 -12.000000 128.000000
v 64.000000 -12.000000 0.000000
v 64.000000 12.000000 128.000000
v 64.000000 12.000000 0.000000
vt 0.023438 0.914062
vt 0.083984 0.914062
vt 0.125000 0.937500
vt 0.023438 0.937500
vt 0.125000 0.789062
vt 0.125000 0.914062
vt 0.062500 0.914062
vt 0.062500 0.789062
vt 0.000000 0.914062
vt 0.125000 0.914062
vt 0.125000 0.937500
vt 0.000000 0.937500
vt 0.000000 0.789062
vt 0.125000 0.789062
vt 0.125000 0.775391
vt 0.000000 0.775391
vt 0.078125 0.789062
vt 0.078125 0.914062
vt 0.125000 0.914062
vt 0.125000 0.789062
vt 0.041016 0.914062
vt 0.103516 0.914062
vt 0.103516 0.937500
vt -0.000000 0.937500
vt -0.000000 0.914062
vt 0.000000 0.789062
vt 0.000000 0.775391
vt 0.125000 0.775391
vt 0.125000 0.789062
vt 0.000000 0.789062
vt 0.000000 0.914062
vt 0.125000 0.914062
vt 0.125000 0.937500
vt 0.000000 0.937500
vt -0.000000 0.914062
vt 0.046875 0.914062
vt 0.046875 0.789062
vn 0.0000 0.0000 1.0000
vn -1.0000 -0.0000 0.0000
vn 0.0000 0.0000 -1.0000
vn 0.0000 -1.0000 0.0000
vn 1.0000 0.0000 0.0000
vn -0.0000 1.0000 0.0000
usemtl Material
s off
f 1/1/1 5/2/1 7/3/1 3/4/1
f 4/5/2 3/6/2 7/7/2 8/8/2
f 6/9/3 2/10/3 4/11/3 8/12/3
f 2/13/4 1/14/4 3/15/4 4/16/4
f 6/17/5 5/18/5 1/19/5 2/20/5
f 5/21/1 9/22/1 11/23/1 7/24/1
f 8/8/6 7/7/6 11/25/6 12/26/6
f 12/27/5 11/28/5 9/29/5 10/30/5
f 10/31/3 6/32/3 8/33/3 12/34/3
f 10/30/4 9/35/4 5/36/4 6/37/4
