# Blender v2.90.0 OBJ File: 'wallDungeonCorner.blend'
# www.blender.org
mtllib wallDungeonCorner.mtl
o Cube.001
v 12.000003 -64.000000 128.000000
v 12.000003 -64.000000 0.000000
v -11.999997 -64.000000 128.000000
v -11.999997 -64.000000 0.000000
v 12.085468 -11.999999 128.000000
v 12.064099 -11.999999 0.000000
v -12.000001 11.999999 128.000000
v -12.000001 11.999999 0.000000
v 64.000000 -12.000000 128.000000
v 64.000000 -12.000000 0.000000
v 64.000000 12.000000 128.000000
v 64.000000 12.000000 0.000000
v 11.731866 12.000000 0.000000
v 11.731866 12.000000 128.000000
v -11.999999 -12.000001 128.000000
v -11.999999 -12.000001 0.000000
v 12.000003 -64.000000 114.000000
v -12.000001 11.999999 114.000000
v -11.999997 -64.000000 114.000000
v 12.085468 -11.999999 114.000000
v 64.000000 12.000000 114.000000
v 64.000000 -12.000000 114.000000
v 11.731866 12.000000 114.000000
v -11.999999 -12.000001 114.000000
v 11.709272 -64.227814 13.482254
v -11.999997 -64.000000 13.740723
v 12.064101 -11.999999 13.740723
v 64.000000 -12.000000 13.740723
v 11.731866 12.000000 13.740723
v -11.999999 -12.000001 13.740723
v -12.000001 11.999999 13.740723
v 64.000000 12.000000 13.740723
v -7.904789 -64.000023 13.740711
v -7.896410 -64.061623 113.913406
v -7.904790 -12.000025 113.999985
v -7.904790 -12.000025 13.740711
v -7.904783 -64.000000 13.740723
v -7.896405 -64.061600 113.913422
v 63.999996 7.718242 13.740723
v 63.999996 7.718242 114.000000
v 11.731863 7.718239 114.000000
v 11.731863 7.718239 13.740723
v 64.000000 -8.316834 114.000000
v 12.085468 -8.316833 114.000000
v 12.064101 -8.316833 13.740723
v 64.000000 -8.316834 13.740723
v 8.023456 -12.096611 114.042961
v 7.937990 -64.096611 114.042961
v 7.647260 -64.324425 13.525215
v 8.002088 -12.096611 13.783684
vt 0.048828 0.914062
vt 0.062500 0.937500
vt 0.048828 0.937500
vt 0.076172 0.900391
vt 0.076172 0.914062
vt 0.048828 0.914062
vt 0.048828 0.900391
vt 0.062500 0.914062
vt 0.125000 0.914062
vt 0.125000 0.937500
vt 0.062500 0.937500
vt 0.062500 0.789062
vt 0.125000 0.789062
vt 0.125000 0.775391
vt 0.062500 0.775391
vt 0.048828 0.900391
vt 0.000000 0.914062
vt 0.000000 0.900391
vt 0.076172 0.914062
vt 0.125000 0.914062
vt 0.125000 0.937500
vt 0.076172 0.937500
vt 0.048828 0.900391
vt 0.048828 0.914062
vt -0.000000 0.914062
vt 0.000000 0.900391
vt 0.062500 0.775391
vt 0.125000 0.775391
vt 0.125000 0.789062
vt 0.062500 0.789062
vt 0.125000 0.914062
vt 0.125000 0.937500
vt 0.062500 0.937500
vt 0.125000 0.900391
vt 0.076172 0.900391
vt 0.000000 0.914062
vt 0.000000 0.937500
vt 0.076172 0.900391
vt 0.076172 0.914062
vt 0.000000 0.937500
vt 0.125000 0.900391
vt 0.125000 0.914062
vt 0.000000 0.937500
vt 0.076172 0.802734
vt 0.048828 0.802734
vt 0.125000 0.902344
vt 0.080078 0.902344
vt 0.080078 0.898438
vt 0.125000 0.898438
vt 0.000000 0.900391
vt 0.048828 0.900391
vt 0.048828 0.902344
vt 0.000000 0.902344
vt 0.000000 0.898438
vt 0.048828 0.898438
vt 0.076172 0.802734
vt 0.048828 0.802734
vt 0.076172 0.789062
vt 0.048828 0.789062
vt 0.000000 0.789062
vt 0.031250 0.789062
vt 0.031250 0.775391
vt 0.000000 0.775391
vt 0.048828 0.789062
vt 0.048828 0.802734
vt 0.000000 0.802734
vt 0.048828 0.789062
vt -0.000000 0.802734
vt 0.000000 0.789062
vt 0.000000 0.775391
vt 0.031250 0.775391
vt 0.031250 0.789062
vt 0.000000 0.789062
vt 0.125000 0.789062
vt 0.125000 0.802734
vt 0.076172 0.802734
vt 0.076172 0.789062
vt 0.076172 0.789062
vt 0.125000 0.789062
vt 0.125000 0.802734
vt 0.125000 0.802734
vt 0.125000 0.900391
vt 0.076172 0.900391
vt 0.076172 0.802734
vt 0.078125 0.898438
vt 0.074219 0.902344
vt 0.125000 0.902344
vt 0.125000 0.898438
vt 0.078125 0.804688
vt 0.074219 0.800781
vt 0.125000 0.800781
vt 0.125000 0.804688
vt 0.076172 0.804688
vt 0.076172 0.800781
vt 0.125000 0.851562
vt 0.125000 0.820312
vt 0.125000 0.820312
vt 0.125000 0.851562
vt 0.048828 0.802734
vt 0.000000 0.802734
vt 0.000000 0.800781
vt 0.048828 0.800781
vt 0.048828 0.804688
vt 0.000000 0.804688
vt 0.125000 0.802734
vt 0.125000 0.900391
vt 0.076172 0.900391
vt 0.076172 0.802734
vt 0.076172 0.800781
vt 0.125000 0.800781
vt 0.125000 0.804688
vt 0.076172 0.804688
vt 0.074219 0.900391
vt 0.074219 0.802734
vt 0.078125 0.802734
vt 0.078125 0.900391
vt 0.048828 0.802734
vt 0.048828 0.900391
vt 0.000000 0.900391
vt 0.000000 0.802734
vt 0.050781 0.802734
vt 0.050781 0.900391
vt 0.046875 0.900391
vt 0.046875 0.802734
vt 0.000000 0.800781
vt 0.048828 0.800781
vt 0.048828 0.804688
vt 0.000000 0.804688
vt 0.125000 0.851562
vt 0.125000 0.851562
vt 0.125000 0.820312
vt 0.125000 0.851562
vt 0.000000 0.820312
vt 0.000000 0.851562
vt 0.000000 0.851562
vt 0.000000 0.820312
vn 0.0000 0.0000 1.0000
vn -1.0000 -0.0000 0.0000
vn 0.0000 0.0000 -1.0000
vn 0.0000 -1.0000 0.0000
vn 1.0000 -0.0016 0.0000
vn 0.0000 1.0000 0.0000
vn 1.0000 0.0000 0.0000
vn -0.0106 0.0000 -0.9999
vn -0.0048 -1.0000 -0.0084
vn 0.9999 -0.0040 0.0106
vn -1.0000 -0.0001 0.0000
vn -0.0106 0.0008 -0.9999
vn 0.9664 -0.2571 -0.0003
vn 1.0000 0.0000 -0.0002
vn 1.0000 -0.0042 -0.0015
vn 0.0238 -0.9997 -0.0000
vn 0.0107 -0.0050 0.9999
vn -0.0114 -0.9999 0.0018
usemtl Material
s off
f 5/1/1 7/2/1 15/3/1
f 24/4/2 15/5/2 7/6/2 18/7/2
f 6/8/3 2/9/3 4/10/3 16/11/3
f 17/12/4 1/13/4 3/14/4 19/15/4
f 20/16/5 5/1/5 1/17/5 17/18/5
f 5/19/1 9/20/1 11/21/1 14/22/1
f 23/23/6 14/24/6 11/25/6 21/26/6
f 21/27/7 11/28/7 9/29/7 22/30/7
f 6/31/3 8/32/3 13/33/3
f 22/34/4 9/20/4 5/19/4 20/35/4
f 10/36/3 6/8/3 13/33/3 12/37/3
f 18/38/6 7/39/6 14/24/6 23/23/6
f 5/19/1 14/22/1 7/2/1
f 6/8/3 16/11/3 8/40/3
f 19/41/2 3/42/2 15/5/2 24/4/2
f 1/17/1 5/1/1 15/3/1 3/43/1
f 31/44/6 18/38/6 23/23/6 29/45/6
f 22/46/3 20/47/3 44/48/3 43/49/3
f 23/23/3 21/26/3 40/50/3 41/51/3
f 20/52/8 17/53/8 48/54/8 47/55/8
f 30/56/2 24/4/2 18/7/2 31/57/2
f 16/58/2 30/56/2 31/57/2 8/59/2
f 2/60/9 25/61/9 26/62/9 4/63/9
f 6/64/10 27/65/10 25/66/10 2/60/10
f 13/67/6 29/45/6 32/68/6 12/69/6
f 12/70/7 32/71/7 28/72/7 10/73/7
f 10/74/4 28/75/4 27/76/4 6/77/4
f 8/78/6 31/44/6 29/45/6 13/67/6
f 4/79/2 26/80/2 30/56/2 16/58/2
f 33/81/11 34/82/11 35/83/11 36/84/11
f 24/85/12 35/86/12 34/87/12 19/88/12
f 30/89/4 36/90/4 35/86/4 24/85/4
f 26/91/1 33/92/1 36/93/1 30/94/1
f 34/95/13 33/96/13 37/97/13 38/98/13
f 42/99/6 41/51/6 40/50/6 39/100/6
f 29/45/7 23/23/7 41/51/7 42/99/7
f 32/101/1 29/102/1 42/103/1 39/104/1
f 46/105/4 43/106/4 44/107/4 45/108/4
f 27/109/1 28/110/1 46/111/1 45/112/1
f 20/113/14 27/114/14 45/115/14 44/116/14
f 50/117/15 47/118/15 48/119/15 49/120/15
f 27/121/16 20/122/16 47/123/16 50/124/16
f 25/125/17 27/126/17 50/127/17 49/128/17
f 17/129/18 19/130/18 34/95/18 38/98/18 37/97/18 49/131/18 48/132/18
f 39/133/7 40/134/7 43/135/7 46/136/7
