v 6.000000 -6.000000 120.000000
v 6.000000 -6.000000 0.000000
v -6.000000 -6.000000 120.000000
v -6.000000 -6.000000 0.000000
v 6.000000 6.000000 120.000000
v 6.000000 6.000000 0.000000
v -6.000000 6.000000 120.000000
v -6.000000 6.000000 0.000000
vt 0.1328125  0.0
vt 0.1328125 0.046875
vt 0.0859375 0.046875
vt 0.0859375 0.0
vt 0.03125 0.46875 
vt 0.03125 0
vt 0.078125 0
vt 0.078125 0.46875
vn 0.0000 0.0000 1.0000
vn -1.0000 0.0000 0.0000
vn 0.0000 1.0000 0.0000
vn 0.0000 0.0000 -1.0000
vn 0.0000 -1.0000 0.0000
vn 1.0000 0.0000 0.0000
f 1/1/1 5/2/1 7/3/1 3/4/1
f 4/5/2 3/6/2 7/7/2 8/8/2
f 8/5/3 7/6/3 5/7/3 6/8/3
f 6/1/4 2/2/4 4/3/4 8/4/4
f 2/5/5 1/6/5 3/7/5 4/8/5
f 6/5/6 5/6/6 1/7/6 2/8/6
#o Cube.001
v 48.000000 -3.000000 111.000000
v 6.000000 -3.000000 111.000000
v 48.000000 -3.000000 117.000000
v 6.000000 -3.000000 117.000000
v 48.000000 3.000000 111.000000
v 6.000000 3.000000 111.000000
v 48.000000 3.000000 117.000000
v 6.000000 3.000000 117.000000
vt 0.0 0.171875
vt 0.0234375 0.171875
vt 0.0234375 0.1953125
vt 0.0 0.1953125
vt 0.0 0.0
vt 0.0 0.1640625
vt 0.0234375 0.1640625
vt 0.0234375 0.0
vn 1.0000 0.0000 0.0000
vn 0.0000 0.0000 1.0000
vn 0.0000 1.0000 0.0000
vn -1.0000 0.0000 0.0000
vn 0.0000 -1.0000 0.0000
vn 0.0000 0.0000 -1.0000
# usemtl Material.001
# s off
#f 9/9/7 13/10/7 15/11/7 11/12/7
f 12/13/8 11/14/8 15/15/8 16/16/8
#f 16/22/9 15/23/9 13/24/9 14/25/9
#f 14/26/10 10/27/10 12/19/10 16/28/10
#f 10/27/11 9/15/11 11/18/11 12/19/11
#f 14/25/12 13/24/12 9/15/12 10/27/12
